<svg id="svg" version="1.1" width="400" height="393.75" viewBox="0 0 400 393.75" xmlns="http://www.w3.org/2000/svg" xmlns:xlink="http://www.w3.org/1999/xlink"><g id="svgg"><path id="path0" d="M28.243 25.484 C 27.731 25.996,27.938 84.135,28.453 84.650 C 28.786 84.983,31.037 85.123,36.059 85.123 C 41.082 85.123,43.332 85.263,43.665 85.596 C 44.398 86.329,44.349 293.325,43.616 293.933 C 43.290 294.204,40.374 294.406,35.833 294.474 L 28.571 294.581 28.571 331.626 L 28.571 368.670 121.576 368.778 C 172.729 368.837,214.980 368.789,215.468 368.672 L 216.355 368.458 216.355 334.198 C 216.355 298.945,216.324 298.215,214.817 297.753 C 214.471 297.647,212.257 297.379,209.897 297.159 C 207.072 296.895,205.188 296.514,204.380 296.042 L 203.153 295.326 203.049 282.481 C 202.986 274.700,203.099 269.232,203.335 268.611 L 203.724 267.586 244.246 267.586 C 275.238 267.586,284.880 267.697,285.241 268.059 C 285.936 268.754,285.917 293.418,285.222 293.868 C 284.951 294.044,281.980 294.276,278.621 294.384 L 272.512 294.581 272.512 331.626 L 272.512 368.670 322.956 368.670 L 373.399 368.670 373.514 334.581 C 373.590 312.244,373.491 300.012,373.228 299.098 L 372.826 297.703 368.331 297.281 C 365.480 297.013,363.280 296.586,362.313 296.114 L 360.788 295.369 360.689 227.320 C 360.599 165.845,360.649 159.210,361.209 158.650 C 361.721 158.138,362.917 158.030,368.065 158.030 C 373.387 158.030,374.335 157.938,374.539 157.406 C 374.852 156.592,374.852 86.955,374.539 86.141 C 374.323 85.577,369.795 85.517,327.347 85.511 C 290.359 85.507,280.185 85.400,279.409 85.009 C 278.462 84.531,278.416 84.332,278.227 79.942 L 278.030 75.373 273.034 70.100 C 270.287 67.200,262.839 59.572,256.483 53.149 C 250.127 46.726,241.379 37.818,237.044 33.355 L 229.163 25.240 128.834 25.231 C 73.654 25.226,28.388 25.340,28.243 25.484 M230.676 38.128 C 233.617 41.108,238.912 46.499,242.445 50.108 C 245.977 53.717,249.714 57.530,250.750 58.581 C 251.786 59.632,252.805 60.670,253.015 60.887 C 253.224 61.103,257.202 65.140,261.853 69.858 C 268.461 76.558,270.361 78.713,270.540 79.710 C 270.666 80.411,270.718 99.257,270.656 121.590 L 270.542 162.194 248.130 184.644 L 225.717 207.094 161.627 207.194 C 102.027 207.287,97.502 207.340,97.044 207.959 C 96.340 208.909,96.321 300.695,97.025 301.399 C 97.353 301.728,99.434 301.872,103.847 301.872 L 110.197 301.872 111.264 302.985 L 112.331 304.099 112.225 332.088 C 112.137 355.114,112.022 360.192,111.577 360.728 C 110.665 361.826,37.647 361.718,37.058 360.617 C 36.145 358.911,36.534 304.097,37.467 302.910 L 38.284 301.872 44.725 301.872 C 48.268 301.872,51.448 301.764,51.790 301.633 C 52.357 301.415,52.414 291.157,52.414 189.363 L 52.414 77.333 51.527 77.096 C 51.039 76.965,47.439 76.856,43.527 76.853 C 38.526 76.849,36.273 76.707,35.941 76.374 C 35.340 75.773,35.256 35.289,35.852 33.720 L 36.237 32.709 130.784 32.709 L 225.330 32.709 230.676 38.128 M95.764 119.761 C 95.764 158.529,95.824 162.697,96.387 162.914 C 97.848 163.474,208.450 163.173,209.766 162.605 C 210.464 162.304,214.448 158.614,218.621 154.405 L 226.207 146.752 226.207 121.374 L 226.207 95.996 216.660 86.421 L 207.113 76.847 151.438 76.847 L 95.764 76.847 95.764 119.761 M116.966 85.202 C 117.651 85.887,117.651 154.113,116.966 154.798 C 116.705 155.058,115.766 155.271,114.877 155.271 C 113.988 155.271,113.048 155.058,112.788 154.798 C 112.287 154.297,112.059 86.643,112.554 85.352 C 112.846 84.591,116.239 84.476,116.966 85.202 M208.499 93.807 C 209.597 94.395,209.706 148.893,208.611 149.804 C 208.147 150.190,206.203 150.401,201.813 150.542 L 195.665 150.739 195.468 155.141 C 195.360 157.563,195.123 159.691,194.943 159.870 C 194.359 160.451,138.283 160.470,137.143 159.890 C 136.203 159.411,136.149 159.190,135.961 155.064 L 135.764 150.739 130.403 150.542 C 126.686 150.405,124.844 150.179,124.394 149.804 C 123.361 148.945,123.400 94.427,124.433 93.825 C 125.398 93.263,207.450 93.245,208.499 93.807 M366.107 94.185 C 366.789 95.460,366.467 149.044,365.773 149.881 C 365.330 150.414,364.200 150.541,359.073 150.631 L 352.906 150.739 352.807 226.453 C 352.728 286.724,352.808 302.251,353.201 302.576 C 353.826 303.093,357.071 303.783,361.379 304.315 C 363.222 304.543,364.951 304.906,365.222 305.122 C 365.924 305.683,365.943 360.205,365.241 360.906 C 364.880 361.268,354.975 361.379,323.064 361.379 L 281.360 361.379 280.975 360.368 C 280.357 358.741,280.475 304.291,281.101 303.054 C 281.593 302.080,281.663 302.068,287.285 301.959 C 291.229 301.883,293.066 301.702,293.278 301.368 C 293.816 300.522,293.666 260.720,293.123 260.177 C 292.573 259.627,196.820 259.483,195.957 260.031 C 195.566 260.279,195.483 264.855,195.563 281.582 L 195.665 302.817 198.227 303.336 C 199.635 303.621,202.243 304.073,204.021 304.341 C 205.799 304.609,207.483 305.058,207.765 305.340 C 208.329 305.905,208.549 359.335,207.993 360.690 C 207.624 361.588,124.051 361.782,123.472 360.887 C 123.296 360.616,123.104 347.807,123.044 332.422 C 122.943 306.396,123.031 303.239,123.890 302.205 C 123.918 302.171,126.601 302.038,129.852 301.909 L 135.764 301.675 135.961 257.058 C 136.147 214.903,136.196 212.403,136.861 211.738 C 137.531 211.069,141.359 211.025,215.482 210.837 L 293.399 210.640 293.399 180.690 L 293.399 150.739 287.842 150.542 C 283.956 150.404,282.089 150.182,281.635 149.804 C 280.603 148.945,280.641 94.427,281.675 93.825 C 283.208 92.932,365.625 93.284,366.107 94.185 M132.512 101.936 C 132.127 102.091,132.020 106.468,132.020 121.957 L 132.020 141.780 132.906 142.018 C 133.394 142.148,135.959 142.258,138.607 142.261 C 144.409 142.267,144.236 142.099,144.236 147.743 C 144.236 152.978,142.087 152.512,166.234 152.512 L 186.706 152.512 186.944 151.626 C 187.074 151.138,187.184 149.045,187.187 146.975 C 187.194 142.034,186.831 142.266,194.562 142.266 L 200.985 142.266 200.985 121.970 L 200.985 101.675 166.995 101.706 C 148.300 101.723,132.783 101.827,132.512 101.936 M289.500 102.298 C 289.369 102.641,289.261 111.601,289.261 122.209 L 289.261 141.497 290.272 141.882 C 290.828 142.093,293.492 142.266,296.193 142.266 L 301.103 142.266 301.490 143.282 C 301.735 143.927,301.839 157.862,301.775 181.399 L 301.675 218.499 300.690 218.997 C 299.905 219.394,283.850 219.497,221.970 219.502 L 144.236 219.507 144.236 264.355 C 144.236 298.710,144.126 309.313,143.764 309.675 C 143.438 310.000,141.469 310.148,137.458 310.148 L 131.626 310.148 131.626 331.628 L 131.626 353.108 165.616 353.007 L 199.606 352.906 199.606 332.420 L 199.606 311.934 194.689 311.419 C 191.500 311.085,189.354 310.660,188.581 310.209 L 187.389 309.513 187.288 281.007 C 187.214 260.276,187.308 252.355,187.632 251.965 C 188.357 251.091,300.378 251.173,301.253 252.048 C 302.068 252.864,302.211 308.863,301.399 309.675 C 301.074 310.000,299.109 310.148,295.111 310.148 L 289.297 310.148 289.068 311.429 C 288.941 312.133,288.889 321.754,288.951 332.808 L 289.064 352.906 323.153 352.906 L 357.241 352.906 357.351 333.202 C 357.484 309.160,358.122 311.977,352.426 311.449 C 349.872 311.213,347.118 310.732,346.305 310.381 L 344.828 309.743 344.828 226.477 C 344.828 162.241,344.936 143.104,345.300 142.739 C 345.623 142.417,347.536 142.264,351.310 142.261 C 354.356 142.258,357.246 142.148,357.734 142.018 L 358.621 141.780 358.621 121.967 C 358.621 104.263,358.554 102.128,357.997 101.914 C 356.365 101.288,289.745 101.661,289.500 102.298 M285.345 158.845 C 286.051 159.961,285.805 202.837,285.091 203.111 C 283.838 203.591,242.551 203.379,242.062 202.889 C 241.710 202.538,245.715 198.317,258.941 185.099 C 280.256 163.796,278.225 166.182,278.233 162.433 C 278.239 159.147,278.412 158.627,279.606 158.298 C 281.097 157.887,284.973 158.256,285.345 158.845 M127.685 215.558 C 128.613 216.145,128.784 292.835,127.859 293.759 C 127.047 294.572,105.708 294.713,104.906 293.911 C 104.220 293.225,104.220 216.331,104.906 215.645 C 105.492 215.059,126.767 214.978,127.685 215.558 " stroke="none" fill="#fbf9f8" fill-rule="evenodd"></path><path id="path1" d="M19.579 16.256 C 18.956 16.715,18.917 19.399,19.011 55.172 L 19.113 93.596 26.798 93.793 C 31.025 93.901,34.704 94.134,34.975 94.309 C 35.367 94.563,35.468 113.998,35.468 189.314 L 35.468 284.001 34.556 284.857 C 33.696 285.666,33.275 285.714,27.147 285.714 C 22.619 285.714,20.507 285.858,20.177 286.187 C 19.815 286.550,19.704 297.317,19.704 332.250 L 19.704 377.839 20.591 378.077 C 22.450 378.575,224.051 378.353,224.552 377.852 C 225.255 377.149,225.236 291.252,224.532 290.373 C 224.169 289.919,222.643 289.634,218.719 289.288 C 211.748 288.672,211.913 288.848,212.088 282.268 C 212.188 278.479,212.347 277.326,212.808 277.035 C 213.747 276.443,275.583 276.529,276.177 277.123 C 276.767 277.713,276.818 283.876,276.242 284.952 C 275.868 285.651,275.367 285.714,270.213 285.714 C 266.366 285.714,264.442 285.864,264.118 286.187 C 263.491 286.815,263.427 376.392,264.053 377.563 C 264.628 378.637,380.969 378.778,382.041 377.706 C 383.132 376.614,382.968 291.539,381.872 290.443 C 381.438 290.010,380.596 289.651,380.000 289.645 C 375.732 289.605,371.042 288.826,370.177 288.014 L 369.261 287.153 369.261 227.560 C 369.261 173.582,369.320 167.944,369.884 167.727 C 370.227 167.595,373.076 167.488,376.216 167.488 C 379.397 167.488,382.261 167.307,382.686 167.080 C 383.630 166.574,383.915 77.866,382.975 76.926 C 382.613 76.564,371.489 76.453,335.305 76.453 C 282.124 76.453,287.291 76.772,287.291 73.495 C 287.291 71.696,285.169 69.460,238.015 21.581 L 232.286 15.764 126.268 15.764 C 42.073 15.764,20.111 15.865,19.579 16.256 M229.990 25.320 C 230.638 25.808,231.747 26.828,232.454 27.586 C 235.033 30.351,253.278 48.979,265.262 61.084 C 279.851 75.819,279.011 74.673,279.013 79.859 C 279.015 83.140,279.127 83.899,279.638 84.096 C 279.981 84.227,301.433 84.335,327.309 84.335 C 373.420 84.335,374.365 84.350,374.764 85.097 C 375.543 86.553,375.308 157.820,374.522 158.474 C 374.058 158.860,372.115 159.071,367.724 159.212 L 361.576 159.409 361.477 227.283 L 361.377 295.157 362.462 295.400 C 363.059 295.534,364.167 295.819,364.926 296.034 C 365.685 296.249,367.796 296.560,369.617 296.724 C 372.145 296.953,373.054 297.196,373.460 297.750 C 374.197 298.758,374.253 368.447,373.517 369.182 C 372.577 370.123,272.441 369.837,271.935 368.893 C 271.236 367.587,271.382 295.522,272.085 294.558 C 272.584 293.875,273.290 293.772,278.686 293.596 L 284.729 293.399 284.833 281.427 C 284.908 272.921,284.808 269.298,284.490 268.914 C 283.919 268.227,205.786 268.098,204.506 268.782 C 203.776 269.173,203.744 269.740,203.744 282.108 L 203.744 295.025 206.798 295.863 C 208.478 296.324,211.182 296.793,212.808 296.906 C 217.612 297.239,217.143 293.266,217.143 333.631 L 217.143 368.455 216.226 369.056 C 215.409 369.591,205.044 369.646,121.743 369.557 L 28.177 369.458 28.077 331.724 C 28.022 310.970,28.022 293.956,28.077 293.913 C 28.132 293.871,31.635 293.738,35.862 293.618 L 43.547 293.399 43.646 190.189 C 43.719 114.223,43.628 86.838,43.302 86.445 C 42.960 86.032,41.238 85.910,35.715 85.905 C 28.249 85.899,27.985 85.854,27.251 84.459 C 26.432 82.904,26.623 26.068,27.450 25.154 C 28.079 24.460,31.736 24.433,128.457 24.433 L 228.812 24.433 229.990 25.320 M113.326 86.139 C 112.769 86.697,112.715 90.218,112.806 120.523 L 112.906 154.286 114.877 154.286 L 116.847 154.286 116.948 120.437 C 117.021 95.756,116.928 86.443,116.604 86.053 C 116.001 85.326,114.089 85.376,113.326 86.139 M279.704 159.637 C 279.159 159.955,279.015 160.577,279.015 162.607 C 279.015 166.145,280.075 164.893,260.301 184.705 C 250.503 194.521,242.578 202.643,242.688 202.754 C 243.157 203.223,283.978 202.958,284.453 202.483 C 285.135 201.801,285.135 160.367,284.453 159.685 C 283.880 159.112,280.662 159.080,279.704 159.637 M276.453 187.789 L 276.453 194.089 270.500 194.197 C 262.065 194.351,262.097 194.552,269.407 187.199 C 276.738 179.825,276.453 179.801,276.453 187.789 M105.024 216.841 C 104.905 217.332,104.857 234.759,104.916 255.567 L 105.025 293.399 116.357 293.504 L 127.689 293.608 127.588 254.883 L 127.488 216.158 116.364 216.053 L 105.240 215.948 105.024 216.841 M118.542 224.709 C 119.168 225.335,119.231 283.787,118.607 284.952 C 118.027 286.035,114.984 286.019,113.892 284.926 C 112.770 283.804,112.639 226.191,113.756 224.957 C 114.517 224.116,117.780 223.947,118.542 224.709 " stroke="none" fill="#f16637" fill-rule="evenodd"></path><path id="path2" d="M5.741 4.291 C 5.623 4.483,5.568 27.315,5.620 55.029 L 5.714 105.419 14.286 105.525 L 22.857 105.631 22.857 189.269 L 22.857 272.906 15.862 272.925 C 12.015 272.935,8.468 273.017,7.980 273.107 L 7.094 273.271 7.094 331.709 L 7.094 390.148 121.970 390.148 C 236.585 390.148,236.847 390.146,236.847 389.360 C 236.847 388.922,237.110 388.571,237.438 388.571 C 237.961 388.571,238.030 382.748,238.030 338.522 L 238.030 288.473 244.532 288.473 L 251.034 288.473 251.034 339.310 L 251.034 390.148 322.760 390.148 L 394.485 390.148 394.386 334.687 L 394.286 279.226 392.315 279.102 C 389.933 278.953,389.237 278.743,389.533 278.264 C 389.784 277.858,387.225 277.336,385.535 277.449 C 384.929 277.489,383.857 277.503,383.153 277.480 L 381.872 277.438 381.872 228.177 L 381.872 178.916 388.966 178.916 L 396.059 178.916 396.059 121.970 C 396.059 65.287,396.055 65.025,395.271 65.025 C 394.745 65.025,394.483 64.762,394.483 64.236 C 394.483 63.452,394.220 63.448,345.222 63.448 C 296.223 63.448,295.961 63.444,295.961 62.660 C 295.961 62.135,295.698 61.872,295.172 61.872 C 294.647 61.872,294.384 61.609,294.384 61.084 C 294.384 60.558,294.122 60.296,293.596 60.296 C 293.071 60.296,292.808 60.033,292.808 59.507 C 292.808 58.982,292.545 58.719,292.020 58.719 C 291.494 58.719,291.232 58.456,291.232 57.931 C 291.232 57.406,290.969 57.143,290.443 57.143 C 289.918 57.143,289.655 56.880,289.655 56.355 C 289.655 55.829,289.392 55.567,288.867 55.567 C 288.358 55.567,288.079 55.304,288.079 54.824 C 288.079 54.414,287.727 53.990,287.291 53.876 C 286.857 53.763,286.502 53.387,286.502 53.042 C 286.502 52.696,286.248 52.414,285.938 52.414 C 285.627 52.414,285.261 52.059,285.123 51.626 C 284.986 51.192,284.536 50.837,284.124 50.837 C 283.623 50.837,283.449 50.643,283.599 50.252 C 283.747 49.866,283.466 49.530,282.775 49.267 C 282.198 49.048,281.836 48.690,281.970 48.473 C 282.105 48.255,281.750 47.901,281.182 47.685 C 280.606 47.466,280.265 47.106,280.410 46.871 C 280.554 46.638,280.299 46.352,279.843 46.233 C 279.387 46.114,279.015 45.755,279.015 45.434 C 279.015 45.114,278.660 44.760,278.227 44.646 C 277.793 44.533,277.438 44.207,277.438 43.921 C 277.438 43.636,277.084 43.290,276.650 43.153 C 276.217 43.015,275.862 42.560,275.862 42.141 C 275.862 41.642,275.590 41.379,275.074 41.379 C 274.548 41.379,274.286 41.117,274.286 40.591 C 274.286 40.066,274.023 39.803,273.498 39.803 C 272.972 39.803,272.709 39.540,272.709 39.015 C 272.709 38.489,272.447 38.227,271.921 38.227 C 271.396 38.227,271.133 37.964,271.133 37.438 C 271.133 36.913,270.870 36.650,270.345 36.650 C 269.819 36.650,269.557 36.388,269.557 35.862 C 269.557 35.337,269.294 35.074,268.768 35.074 C 268.243 35.074,267.980 34.811,267.980 34.286 C 267.980 33.760,267.718 33.498,267.192 33.498 C 266.659 33.498,266.404 33.235,266.404 32.686 C 266.404 32.240,266.262 31.962,266.090 32.069 C 265.463 32.456,264.778 31.620,264.744 30.425 C 264.724 29.752,264.602 29.217,264.473 29.235 C 263.481 29.373,261.713 28.561,261.536 27.887 C 261.399 27.362,261.118 27.170,260.713 27.326 C 260.289 27.488,260.099 27.329,260.099 26.812 C 260.099 26.400,259.744 25.950,259.310 25.813 C 258.877 25.675,258.522 25.309,258.522 24.998 C 258.522 24.688,258.167 24.433,257.734 24.433 C 257.209 24.433,256.946 24.171,256.946 23.645 C 256.946 23.120,256.683 22.857,256.158 22.857 C 255.632 22.857,255.369 22.594,255.369 22.069 C 255.369 21.544,255.107 21.281,254.581 21.281 C 254.056 21.281,253.793 21.018,253.793 20.493 C 253.793 19.967,253.530 19.704,253.005 19.704 C 252.479 19.704,252.217 19.442,252.217 18.916 C 252.217 18.391,251.954 18.128,251.429 18.128 C 250.705 18.128,250.330 16.817,250.603 15.242 C 250.635 15.063,250.492 15.020,250.288 15.147 C 249.809 15.443,248.591 14.239,248.887 13.761 C 249.010 13.562,248.745 13.399,248.299 13.399 C 247.573 13.399,247.303 12.995,247.441 12.118 C 247.467 11.956,247.133 11.823,246.700 11.823 C 245.994 11.823,245.727 11.413,245.865 10.542 C 245.890 10.379,245.557 10.246,245.123 10.246 C 244.418 10.246,244.151 9.837,244.288 8.966 C 244.314 8.803,243.980 8.670,243.547 8.670 C 242.841 8.670,242.574 8.261,242.712 7.389 C 242.738 7.227,242.404 7.094,241.970 7.094 C 241.265 7.094,240.998 6.684,241.136 5.813 C 241.161 5.650,240.828 5.517,240.394 5.517 C 239.689 5.517,239.422 5.108,239.559 4.238 C 239.625 3.815,6.003 3.868,5.741 4.291 M238.101 21.445 C 243.832 27.216,261.658 45.356,277.931 61.976 C 282.862 67.012,286.970 71.399,287.060 71.724 C 287.151 72.049,287.339 73.158,287.479 74.187 L 287.733 76.059 334.828 76.059 C 366.539 76.059,382.173 76.192,382.686 76.467 C 383.763 77.044,383.901 166.836,382.825 167.248 C 382.482 167.380,379.659 167.488,376.552 167.488 C 373.444 167.488,370.621 167.595,370.279 167.727 C 369.714 167.944,369.655 173.585,369.655 227.600 L 369.655 287.233 370.627 287.998 C 371.324 288.546,372.526 288.837,374.864 289.025 C 379.967 289.436,381.472 289.706,382.090 290.324 C 382.586 290.820,382.650 296.778,382.563 334.513 L 382.463 378.128 323.547 378.233 L 264.631 378.338 263.941 377.500 C 262.904 376.239,262.868 287.185,263.903 286.041 C 264.477 285.407,265.232 285.320,270.195 285.320 C 275.367 285.320,275.868 285.257,276.242 284.558 C 276.681 283.738,276.805 278.694,276.411 277.668 C 276.089 276.829,213.072 276.700,212.543 277.537 C 211.913 278.535,211.889 286.442,212.514 287.395 C 213.153 288.370,215.921 289.009,221.581 289.489 C 224.266 289.717,224.664 289.851,224.841 290.589 C 224.953 291.051,224.995 310.936,224.936 334.778 L 224.828 378.128 122.833 378.227 C 52.974 378.295,20.597 378.198,20.074 377.918 C 18.853 377.264,18.877 287.330,20.099 286.108 C 20.823 285.384,21.412 285.320,27.361 285.320 C 32.725 285.320,33.942 285.214,34.455 284.700 C 35.017 284.139,35.066 275.069,34.976 189.232 L 34.877 94.384 27.192 94.187 C 22.966 94.079,19.286 93.847,19.015 93.671 C 18.392 93.268,18.286 18.406,18.907 16.774 L 19.291 15.764 125.874 15.764 L 232.457 15.764 238.101 21.445 M37.340 34.833 C 36.250 35.663,36.279 74.025,37.371 75.013 C 37.986 75.569,39.140 75.665,45.225 75.665 C 51.184 75.665,52.459 75.767,52.977 76.284 C 54.073 77.381,53.906 301.956,52.808 303.054 C 52.078 303.784,51.494 303.842,44.926 303.842 L 37.833 303.842 37.833 331.199 C 37.833 346.246,37.940 358.837,38.072 359.180 C 38.287 359.742,41.848 359.803,74.320 359.803 L 110.330 359.803 110.545 358.916 C 110.663 358.429,110.710 345.882,110.651 331.034 L 110.542 304.039 103.317 303.842 C 96.749 303.663,96.042 303.576,95.534 302.880 C 94.614 301.620,94.705 207.217,95.627 206.452 C 96.172 206.000,106.798 205.894,160.750 205.807 L 225.222 205.702 246.995 183.861 L 268.768 162.019 268.764 120.517 L 268.759 79.015 262.062 72.118 C 258.380 68.325,249.620 59.369,242.596 52.217 C 235.572 45.064,228.806 38.148,227.560 36.847 L 225.295 34.483 131.662 34.395 C 54.182 34.323,37.911 34.398,37.340 34.833 M207.921 76.019 C 208.766 76.647,213.448 81.170,218.325 86.071 L 227.192 94.982 227.192 121.331 L 227.192 147.679 220.887 154.074 C 215.251 159.789,213.640 161.397,211.105 163.840 C 210.397 164.523,98.595 165.199,95.869 164.537 C 93.722 164.016,93.793 165.563,93.793 119.656 L 93.793 77.302 94.813 76.089 L 95.834 74.877 151.109 74.877 L 206.384 74.877 207.921 76.019 M125.320 121.347 C 125.320 136.068,125.428 148.393,125.559 148.736 C 125.761 149.263,126.639 149.360,131.213 149.360 C 138.035 149.360,137.859 149.216,138.015 154.892 L 138.128 159.015 165.714 159.015 L 193.300 159.015 193.498 154.745 C 193.755 149.171,193.490 149.360,201.070 149.360 L 206.916 149.360 207.300 148.349 C 207.719 147.249,207.858 96.279,207.446 95.205 C 207.230 94.642,203.234 94.581,166.263 94.581 L 125.320 94.581 125.320 121.347 M282.956 121.347 C 282.956 136.068,283.063 148.393,283.195 148.736 C 283.396 149.261,284.259 149.360,288.667 149.360 C 293.794 149.360,293.912 149.379,294.536 150.331 C 295.628 151.997,295.489 209.722,294.389 211.526 L 293.609 212.806 215.868 212.905 L 138.128 213.005 137.931 257.621 C 137.699 310.173,138.785 303.565,130.332 303.842 L 124.335 304.039 124.233 331.429 C 124.138 356.828,124.179 358.854,124.800 359.310 C 125.678 359.955,205.328 360.038,206.528 359.395 C 207.270 358.998,207.291 358.289,207.291 333.000 L 207.291 307.013 206.317 306.375 C 205.678 305.957,203.751 305.603,200.714 305.347 C 192.775 304.677,193.449 306.992,193.586 280.831 L 193.695 259.986 194.790 259.169 C 195.884 258.352,195.923 258.351,244.578 258.338 L 293.270 258.325 294.235 259.446 L 295.199 260.567 295.087 281.452 L 294.975 302.336 294.045 303.089 C 293.225 303.753,292.439 303.842,287.444 303.842 L 281.773 303.842 281.773 331.823 L 281.773 359.803 322.483 359.803 C 353.620 359.803,363.303 359.692,363.665 359.330 C 364.382 358.613,364.344 307.428,363.626 306.445 C 363.221 305.892,362.219 305.673,358.865 305.405 C 354.040 305.019,352.088 304.497,351.524 303.443 C 350.782 302.057,351.007 150.724,351.752 149.979 C 352.263 149.468,353.464 149.360,358.603 149.360 C 364.732 149.360,364.838 149.345,365.072 148.473 C 365.383 147.310,365.392 96.016,365.081 95.205 C 364.865 94.642,360.870 94.581,323.899 94.581 L 282.956 94.581 282.956 121.347 M201.548 100.324 C 202.304 101.079,202.505 141.688,201.760 143.080 C 201.384 143.781,200.882 143.842,195.529 143.842 C 188.183 143.842,188.467 143.644,188.304 148.882 C 188.208 151.955,188.034 153.026,187.586 153.309 C 186.454 154.024,144.398 153.800,143.673 153.075 C 143.191 152.592,143.054 151.561,143.054 148.392 C 143.054 143.547,143.493 143.856,136.595 143.848 C 132.599 143.843,131.833 143.741,131.386 143.153 C 130.532 142.028,130.600 101.181,131.457 100.324 C 132.401 99.379,200.604 99.379,201.548 100.324 M359.184 100.324 C 360.152 101.292,360.120 142.050,359.151 143.122 C 358.577 143.756,357.823 143.842,352.878 143.842 C 349.786 143.842,346.976 143.950,346.633 144.082 C 346.068 144.299,346.010 151.939,346.010 226.636 L 346.010 308.951 346.897 309.120 C 347.384 309.213,349.113 309.486,350.739 309.727 C 352.365 309.968,354.626 310.304,355.765 310.473 C 359.036 310.959,358.805 309.364,358.927 332.298 L 359.035 352.834 358.168 353.757 L 357.301 354.680 323.172 354.680 C 292.920 354.680,288.943 354.610,288.167 354.066 L 287.291 353.453 287.291 331.594 L 287.291 309.734 288.302 309.350 C 288.857 309.138,291.696 308.966,294.610 308.966 L 299.907 308.966 299.806 281.281 L 299.704 253.596 244.926 253.488 C 214.798 253.429,189.749 253.476,189.261 253.594 L 188.374 253.808 188.374 281.369 L 188.374 308.930 189.655 309.126 C 190.360 309.234,192.087 309.433,193.494 309.568 C 194.900 309.703,196.230 309.955,196.449 310.127 C 196.668 310.298,197.690 310.529,198.719 310.639 C 202.010 310.991,201.773 309.300,201.773 332.433 L 201.773 353.046 200.735 353.863 C 199.098 355.151,132.331 355.151,130.694 353.863 L 129.655 353.046 129.655 331.607 L 129.655 310.168 130.818 309.567 C 131.698 309.112,133.325 308.966,137.517 308.966 L 143.054 308.966 143.054 264.088 C 143.054 226.902,143.145 219.134,143.586 218.768 C 143.974 218.447,165.205 218.300,221.911 218.228 L 299.704 218.128 299.704 181.084 L 299.704 144.039 294.501 143.842 C 290.986 143.709,289.132 143.479,288.787 143.133 C 287.819 142.162,288.064 100.978,289.041 100.264 C 290.258 99.373,358.292 99.432,359.184 100.324 M269.831 187.114 C 262.374 194.584,262.346 194.286,270.495 194.286 C 277.040 194.286,276.650 194.700,276.650 187.753 C 276.650 180.042,276.871 180.062,269.831 187.114 M113.970 225.103 C 113.286 225.788,113.286 284.163,113.970 284.847 C 114.779 285.656,118.131 285.447,118.607 284.558 C 119.230 283.393,119.167 225.729,118.542 225.103 C 118.282 224.843,117.253 224.631,116.256 224.631 C 115.259 224.631,114.231 224.843,113.970 225.103 " stroke="none" fill="#643414" fill-rule="evenodd"></path><path id="path3" d="M18.615 55.248 C 18.564 76.205,18.655 93.435,18.818 93.535 C 19.085 93.701,19.083 67.155,18.812 30.936 C 18.755 23.350,18.667 34.290,18.615 55.248 M37.635 33.392 C 36.285 33.729,36.268 33.987,36.262 55.229 C 36.257 73.786,36.322 76.000,36.880 76.214 C 37.222 76.346,40.836 76.453,44.910 76.453 C 50.671 76.453,52.416 76.572,52.762 76.989 C 53.681 78.096,53.163 301.820,52.240 302.495 C 51.649 302.927,49.929 303.054,44.696 303.054 C 38.878 303.054,37.883 303.143,37.678 303.678 C 37.242 304.812,37.405 359.399,37.846 360.223 C 38.487 361.420,110.084 361.420,110.725 360.223 C 111.348 359.058,111.285 304.152,110.660 303.527 C 110.330 303.197,108.197 303.054,103.595 303.054 C 98.127 303.054,96.896 302.949,96.383 302.435 C 95.843 301.895,95.328 207.309,95.862 206.803 C 95.916 206.752,125.133 206.619,160.788 206.508 L 225.616 206.305 247.408 184.427 C 259.393 172.394,269.366 162.285,269.569 161.964 C 269.793 161.610,269.941 145.166,269.945 120.269 L 269.951 79.160 261.792 70.811 C 257.305 66.220,249.694 58.473,244.879 53.596 C 240.063 48.719,233.937 42.464,231.264 39.696 C 228.591 36.928,225.872 34.313,225.222 33.886 C 224.088 33.141,40.574 32.658,37.635 33.392 M227.560 36.847 C 228.806 38.148,235.572 45.064,242.596 52.217 C 249.620 59.369,258.380 68.325,262.062 72.118 L 268.759 79.015 268.764 120.517 L 268.768 162.019 246.995 183.861 L 225.222 205.702 160.750 205.807 C 106.798 205.894,96.172 206.000,95.627 206.452 C 94.705 207.217,94.614 301.620,95.534 302.880 C 96.042 303.576,96.749 303.663,103.317 303.842 L 110.542 304.039 110.651 331.034 C 110.710 345.882,110.663 358.429,110.545 358.916 L 110.330 359.803 74.320 359.803 C 41.848 359.803,38.287 359.742,38.072 359.180 C 37.940 358.837,37.833 346.246,37.833 331.199 L 37.833 303.842 44.926 303.842 C 51.494 303.842,52.078 303.784,52.808 303.054 C 53.906 301.956,54.073 77.381,52.977 76.284 C 52.459 75.767,51.184 75.665,45.225 75.665 C 39.140 75.665,37.986 75.569,37.371 75.013 C 36.279 74.025,36.250 35.663,37.340 34.833 C 37.911 34.398,54.182 34.323,131.662 34.395 L 225.295 34.483 227.560 36.847 M283.941 68.571 C 285.447 70.089,286.767 71.330,286.875 71.330 C 286.984 71.330,285.841 70.089,284.335 68.571 C 282.829 67.054,281.509 65.813,281.400 65.813 C 281.292 65.813,282.435 67.054,283.941 68.571 M94.813 76.089 L 93.793 77.302 93.793 119.656 C 93.793 165.563,93.722 164.016,95.869 164.537 C 98.595 165.199,210.397 164.523,211.105 163.840 C 213.640 161.397,215.251 159.789,220.887 154.074 L 227.192 147.679 227.192 121.331 L 227.192 94.982 218.325 86.071 C 213.448 81.170,208.766 76.647,207.921 76.019 L 206.384 74.877 151.109 74.877 L 95.834 74.877 94.813 76.089 M216.963 85.727 L 226.601 95.395 226.601 121.392 L 226.601 147.389 219.226 154.778 C 215.170 158.842,211.322 162.567,210.676 163.054 L 209.502 163.941 152.647 163.941 C 96.839 163.941,95.784 163.927,95.383 163.179 C 94.757 162.009,94.821 77.160,95.448 76.532 C 95.812 76.169,108.825 76.059,151.623 76.059 L 207.324 76.059 216.963 85.727 M311.656 76.355 C 324.732 76.412,346.013 76.412,358.947 76.355 C 371.881 76.297,361.182 76.250,335.172 76.250 C 309.163 76.250,298.580 76.297,311.656 76.355 M23.724 94.086 C 25.609 94.158,28.802 94.159,30.818 94.087 C 32.833 94.015,31.291 93.956,27.389 93.956 C 23.488 93.956,21.838 94.014,23.724 94.086 M125.151 94.412 C 124.416 95.148,124.192 146.838,124.916 148.743 L 125.301 149.754 130.346 149.754 C 137.194 149.754,137.143 149.714,137.143 155.054 C 137.143 158.405,137.253 159.170,137.766 159.367 C 139.053 159.860,193.706 159.634,194.207 159.133 C 194.513 158.827,194.680 157.236,194.680 154.615 C 194.680 149.573,194.410 149.754,201.954 149.754 L 207.704 149.754 208.089 148.743 C 208.934 146.519,208.575 94.663,207.711 94.201 C 206.303 93.448,125.910 93.654,125.151 94.412 M282.660 94.199 L 281.773 94.556 281.773 121.393 C 281.773 139.138,281.912 148.487,282.181 148.991 C 282.553 149.686,283.052 149.754,287.817 149.754 C 291.357 149.754,293.197 149.906,293.517 150.227 C 294.202 150.911,294.202 210.862,293.517 211.547 C 293.153 211.911,275.302 212.020,215.567 212.020 C 155.831 212.020,137.980 212.128,137.616 212.493 C 137.254 212.855,137.143 223.270,137.143 256.971 C 137.143 309.374,138.113 303.054,130.069 303.054 C 125.962 303.054,124.519 303.186,124.184 303.590 C 123.860 303.980,123.766 311.798,123.840 332.235 L 123.941 360.344 125.206 360.672 C 127.720 361.323,206.877 360.865,207.299 360.197 C 207.771 359.451,207.807 306.616,207.336 305.873 C 207.133 305.553,205.692 305.200,203.697 304.983 C 199.981 304.578,196.402 303.885,195.369 303.370 C 194.437 302.906,194.287 260.521,195.215 259.751 C 195.606 259.426,208.871 259.334,244.771 259.407 L 293.793 259.507 293.895 280.744 C 293.968 295.857,293.871 302.132,293.560 302.507 C 293.240 302.893,291.579 303.063,287.349 303.142 L 281.576 303.251 281.475 331.582 C 281.401 352.348,281.494 360.058,281.823 360.454 C 282.472 361.236,363.827 361.060,364.611 360.276 C 365.320 359.567,365.370 306.493,364.662 305.786 C 364.409 305.532,362.572 305.161,360.581 304.962 C 357.187 304.621,353.193 303.794,352.311 303.248 C 352.056 303.091,351.921 276.551,351.921 226.765 L 351.921 150.522 352.932 150.138 C 353.488 149.927,356.484 149.754,359.589 149.754 C 364.375 149.754,365.272 149.659,365.475 149.130 C 365.969 147.844,365.743 94.767,365.241 94.266 C 364.662 93.686,284.098 93.622,282.660 94.199 M34.877 189.360 C 34.877 241.663,35.010 284.375,35.172 284.274 C 35.559 284.035,35.559 94.684,35.172 94.445 C 35.010 94.345,34.877 137.056,34.877 189.360 M207.446 95.205 C 207.858 96.279,207.719 147.249,207.300 148.349 L 206.916 149.360 201.070 149.360 C 193.490 149.360,193.755 149.171,193.498 154.745 L 193.300 159.015 165.714 159.015 L 138.128 159.015 138.015 154.892 C 137.859 149.216,138.035 149.360,131.213 149.360 C 126.639 149.360,125.761 149.263,125.559 148.736 C 125.428 148.393,125.320 136.068,125.320 121.347 L 125.320 94.581 166.263 94.581 C 203.234 94.581,207.230 94.642,207.446 95.205 M365.081 95.205 C 365.392 96.016,365.383 147.310,365.072 148.473 C 364.838 149.345,364.732 149.360,358.603 149.360 C 353.464 149.360,352.263 149.468,351.752 149.979 C 351.007 150.724,350.782 302.057,351.524 303.443 C 352.088 304.497,354.040 305.019,358.865 305.405 C 362.219 305.673,363.221 305.892,363.626 306.445 C 364.344 307.428,364.382 358.613,363.665 359.330 C 363.303 359.692,353.620 359.803,322.483 359.803 L 281.773 359.803 281.773 331.823 L 281.773 303.842 287.444 303.842 C 292.439 303.842,293.225 303.753,294.045 303.089 L 294.975 302.336 295.087 281.452 L 295.199 260.567 294.235 259.446 L 293.270 258.325 244.578 258.338 C 195.923 258.351,195.884 258.352,194.790 259.169 L 193.695 259.986 193.586 280.831 C 193.449 306.992,192.775 304.677,200.714 305.347 C 203.751 305.603,205.678 305.957,206.317 306.375 L 207.291 307.013 207.291 333.000 C 207.291 358.289,207.270 358.998,206.528 359.395 C 205.328 360.038,125.678 359.955,124.800 359.310 C 124.179 358.854,124.138 356.828,124.233 331.429 L 124.335 304.039 130.332 303.842 C 138.785 303.565,137.699 310.173,137.931 257.621 L 138.128 213.005 215.868 212.905 L 293.609 212.806 294.389 211.526 C 295.489 209.722,295.628 151.997,294.536 150.331 C 293.912 149.379,293.794 149.360,288.667 149.360 C 284.259 149.360,283.396 149.261,283.195 148.736 C 283.063 148.393,282.956 136.068,282.956 121.347 L 282.956 94.581 323.899 94.581 C 360.870 94.581,364.865 94.642,365.081 95.205 M131.457 100.324 C 130.600 101.181,130.532 142.028,131.386 143.153 C 131.833 143.741,132.599 143.843,136.595 143.848 C 143.493 143.856,143.054 143.547,143.054 148.392 C 143.054 151.561,143.191 152.592,143.673 153.075 C 144.398 153.800,186.454 154.024,187.586 153.309 C 188.034 153.026,188.208 151.955,188.304 148.882 C 188.467 143.644,188.183 143.842,195.529 143.842 C 200.882 143.842,201.384 143.781,201.760 143.080 C 202.505 141.688,202.304 101.079,201.548 100.324 C 200.604 99.379,132.401 99.379,131.457 100.324 M289.041 100.264 C 288.064 100.978,287.819 142.162,288.787 143.133 C 289.132 143.479,290.986 143.709,294.501 143.842 L 299.704 144.039 299.704 181.084 L 299.704 218.128 221.911 218.228 C 165.205 218.300,143.974 218.447,143.586 218.768 C 143.145 219.134,143.054 226.902,143.054 264.088 L 143.054 308.966 137.517 308.966 C 133.325 308.966,131.698 309.112,130.818 309.567 L 129.655 310.168 129.655 331.607 L 129.655 353.046 130.694 353.863 C 132.331 355.151,199.098 355.151,200.735 353.863 L 201.773 353.046 201.773 332.433 C 201.773 309.300,202.010 310.991,198.719 310.639 C 197.690 310.529,196.668 310.298,196.449 310.127 C 196.230 309.955,194.900 309.703,193.494 309.568 C 192.087 309.433,190.360 309.234,189.655 309.126 L 188.374 308.930 188.374 281.369 L 188.374 253.808 189.261 253.594 C 189.749 253.476,214.798 253.429,244.926 253.488 L 299.704 253.596 299.806 281.281 L 299.907 308.966 294.610 308.966 C 291.696 308.966,288.857 309.138,288.302 309.350 L 287.291 309.734 287.291 331.594 L 287.291 353.453 288.167 354.066 C 288.943 354.610,292.920 354.680,323.172 354.680 L 357.301 354.680 358.168 353.757 L 359.035 352.834 358.927 332.298 C 358.805 309.364,359.036 310.959,355.765 310.473 C 354.626 310.304,352.365 309.968,350.739 309.727 C 349.113 309.486,347.384 309.213,346.897 309.120 L 346.010 308.951 346.010 226.636 C 346.010 151.939,346.068 144.299,346.633 144.082 C 346.976 143.950,349.786 143.842,352.878 143.842 C 357.823 143.842,358.577 143.756,359.151 143.122 C 360.120 142.050,360.152 101.292,359.184 100.324 C 358.292 99.432,290.258 99.373,289.041 100.264 M201.389 101.503 C 201.927 102.917,201.904 141.285,201.365 142.292 C 200.988 142.997,200.483 143.054,194.656 143.054 L 188.355 143.054 187.971 144.065 C 187.759 144.621,187.586 146.714,187.586 148.715 C 187.586 153.771,189.761 153.307,166.325 153.261 C 141.532 153.213,144.089 153.780,143.842 148.279 C 143.600 142.861,143.921 143.138,137.695 142.984 C 134.056 142.895,132.340 142.698,131.882 142.316 C 131.023 141.602,130.873 102.672,131.724 101.598 C 132.554 100.552,132.436 100.556,167.202 100.524 L 201.005 100.493 201.389 101.503 M358.850 101.455 C 359.761 102.701,359.675 141.554,358.759 142.316 C 358.284 142.711,356.432 142.891,351.901 142.982 C 345.904 143.103,345.686 143.137,345.463 143.967 C 344.953 145.871,345.200 308.852,345.714 309.261 C 346.186 309.637,351.613 310.679,355.587 311.157 C 357.136 311.343,357.546 311.562,357.853 312.368 C 358.588 314.302,358.329 352.338,357.574 353.171 C 356.734 354.099,290.686 354.302,288.867 353.382 L 287.882 352.883 287.780 332.668 C 287.723 321.550,287.823 311.890,288.001 311.202 L 288.324 309.951 294.211 309.754 C 297.449 309.645,300.320 309.413,300.591 309.238 C 301.294 308.783,301.313 253.392,300.611 252.690 C 300.247 252.326,287.192 252.217,244.246 252.217 L 188.355 252.217 187.971 253.228 C 187.185 255.294,187.477 308.882,188.276 309.288 C 188.966 309.638,194.166 310.651,198.210 311.223 C 201.069 311.627,200.900 310.275,200.946 333.081 L 200.985 352.665 200.109 353.278 C 199.333 353.822,195.414 353.892,165.714 353.892 C 136.015 353.892,132.095 353.822,131.319 353.278 L 130.443 352.665 130.483 332.293 C 130.504 321.088,130.645 311.478,130.795 310.936 C 131.067 309.952,131.077 309.950,137.029 309.754 C 140.308 309.645,143.138 309.409,143.318 309.228 C 143.498 309.048,143.734 288.654,143.842 263.908 L 144.039 218.916 222.463 218.717 C 265.596 218.607,300.931 218.474,300.985 218.421 C 301.408 218.009,301.018 143.885,300.591 143.535 C 300.320 143.314,297.742 143.070,294.862 142.995 C 290.745 142.887,289.546 142.731,289.253 142.266 C 288.719 141.422,288.744 102.247,289.278 101.249 C 289.922 100.046,357.967 100.248,358.850 101.455 M369.358 227.419 L 369.261 287.153 370.173 288.010 C 370.675 288.481,371.231 288.867,371.409 288.867 C 371.586 288.867,371.265 288.500,370.695 288.051 L 369.658 287.235 369.557 227.460 L 369.456 167.685 369.358 227.419 M113.753 224.960 C 113.153 225.623,113.107 228.139,113.202 255.009 L 113.306 284.335 113.402 254.956 C 113.474 232.739,113.613 225.461,113.970 225.103 C 114.593 224.481,117.917 224.495,118.621 225.123 C 119.091 225.542,119.096 225.513,118.652 224.926 C 117.913 223.950,114.647 223.973,113.753 224.960 M228.896 276.946 C 237.637 277.005,251.824 277.005,260.423 276.946 C 269.023 276.886,261.872 276.838,244.532 276.838 C 227.192 276.838,220.156 276.887,228.896 276.946 M27.389 285.320 L 20.690 285.546 27.267 285.630 C 31.321 285.682,33.939 285.563,34.089 285.320 C 34.223 285.103,34.277 284.964,34.210 285.010 C 34.143 285.056,31.074 285.196,27.389 285.320 M116.453 285.320 L 114.483 285.590 116.331 285.652 C 117.348 285.686,118.290 285.537,118.424 285.320 C 118.558 285.103,118.612 284.954,118.545 284.988 C 118.478 285.022,117.537 285.172,116.453 285.320 M270.363 285.221 C 265.778 285.319,264.530 285.468,263.959 285.984 C 263.285 286.594,263.256 288.756,263.348 331.785 L 263.445 376.946 263.547 331.861 C 263.620 299.343,263.771 286.628,264.089 286.245 C 264.421 285.845,265.922 285.714,270.173 285.714 C 273.510 285.714,275.915 285.553,276.059 285.320 C 276.193 285.103,276.248 284.965,276.181 285.013 C 276.114 285.061,273.496 285.154,270.363 285.221 M19.501 332.217 C 19.501 357.251,19.548 367.493,19.606 354.975 C 19.664 342.458,19.664 321.975,19.606 309.458 C 19.548 296.941,19.501 307.182,19.501 332.217 M212.758 288.177 C 213.091 288.603,213.770 288.844,214.531 288.808 L 215.764 288.749 214.581 288.576 C 213.931 288.481,213.133 288.197,212.808 287.945 C 212.293 287.547,212.287 287.577,212.758 288.177 M373.300 289.139 C 373.680 289.238,374.300 289.238,374.680 289.139 C 375.059 289.040,374.749 288.958,373.990 288.958 C 373.232 288.958,372.921 289.040,373.300 289.139 " stroke="none" fill="#9a7c65" fill-rule="evenodd"></path><path id="path4" d="M27.450 25.154 C 26.623 26.068,26.432 82.904,27.251 84.459 C 27.985 85.854,28.249 85.899,35.715 85.905 C 41.238 85.910,42.960 86.032,43.302 86.445 C 43.628 86.838,43.719 114.223,43.646 190.189 L 43.547 293.399 35.862 293.618 C 31.635 293.738,28.132 293.871,28.077 293.913 C 28.022 293.956,28.022 310.970,28.077 331.724 L 28.177 369.458 121.743 369.557 C 205.044 369.646,215.409 369.591,216.226 369.056 L 217.143 368.455 217.143 333.631 C 217.143 293.266,217.612 297.239,212.808 296.906 C 211.182 296.793,208.478 296.324,206.798 295.863 L 203.744 295.025 203.744 282.108 C 203.744 269.740,203.776 269.173,204.506 268.782 C 205.786 268.098,283.919 268.227,284.490 268.914 C 284.808 269.298,284.908 272.921,284.833 281.427 L 284.729 293.399 278.686 293.596 C 273.290 293.772,272.584 293.875,272.085 294.558 C 271.382 295.522,271.236 367.587,271.935 368.893 C 272.441 369.837,372.577 370.123,373.517 369.182 C 374.253 368.447,374.197 298.758,373.460 297.750 C 373.054 297.196,372.145 296.953,369.617 296.724 C 367.796 296.560,365.685 296.249,364.926 296.034 C 364.167 295.819,363.059 295.534,362.462 295.400 L 361.377 295.157 361.477 227.283 L 361.576 159.409 367.724 159.212 C 372.115 159.071,374.058 158.860,374.522 158.474 C 375.308 157.820,375.543 86.553,374.764 85.097 C 374.365 84.350,373.420 84.335,327.309 84.335 C 301.433 84.335,279.981 84.227,279.638 84.096 C 279.127 83.899,279.015 83.140,279.013 79.859 C 279.011 74.673,279.851 75.819,265.262 61.084 C 253.278 48.979,235.033 30.351,232.454 27.586 C 231.747 26.828,230.638 25.808,229.990 25.320 L 228.812 24.433 128.457 24.433 C 31.736 24.433,28.079 24.460,27.450 25.154 M237.044 33.355 C 241.379 37.818,250.127 46.726,256.483 53.149 C 262.839 59.572,270.287 67.200,273.034 70.100 L 278.030 75.373 278.227 79.942 C 278.416 84.332,278.462 84.531,279.409 85.009 C 280.185 85.400,290.359 85.507,327.347 85.511 C 369.795 85.517,374.323 85.577,374.539 86.141 C 374.852 86.955,374.852 156.592,374.539 157.406 C 374.335 157.938,373.387 158.030,368.065 158.030 C 362.917 158.030,361.721 158.138,361.209 158.650 C 360.649 159.210,360.599 165.845,360.689 227.320 L 360.788 295.369 362.313 296.114 C 363.280 296.586,365.480 297.013,368.331 297.281 L 372.826 297.703 373.228 299.098 C 373.491 300.012,373.590 312.244,373.514 334.581 L 373.399 368.670 322.956 368.670 L 272.512 368.670 272.512 331.626 L 272.512 294.581 278.621 294.384 C 281.980 294.276,284.951 294.044,285.222 293.868 C 285.917 293.418,285.936 268.754,285.241 268.059 C 284.880 267.697,275.238 267.586,244.246 267.586 L 203.724 267.586 203.335 268.611 C 203.099 269.232,202.986 274.700,203.049 282.481 L 203.153 295.326 204.380 296.042 C 205.188 296.514,207.072 296.895,209.897 297.159 C 212.257 297.379,214.471 297.647,214.817 297.753 C 216.324 298.215,216.355 298.945,216.355 334.198 L 216.355 368.458 215.468 368.672 C 214.980 368.789,172.729 368.837,121.576 368.778 L 28.571 368.670 28.571 331.626 L 28.571 294.581 35.833 294.474 C 40.374 294.406,43.290 294.204,43.616 293.933 C 44.349 293.325,44.398 86.329,43.665 85.596 C 43.332 85.263,41.082 85.123,36.059 85.123 C 31.037 85.123,28.786 84.983,28.453 84.650 C 27.938 84.135,27.731 25.996,28.243 25.484 C 28.388 25.340,73.654 25.226,128.834 25.231 L 229.163 25.240 237.044 33.355 M35.852 33.720 C 35.256 35.289,35.340 75.773,35.941 76.374 C 36.273 76.707,38.526 76.849,43.527 76.853 C 47.439 76.856,51.039 76.965,51.527 77.096 L 52.414 77.333 52.414 189.363 C 52.414 291.157,52.357 301.415,51.790 301.633 C 51.448 301.764,48.268 301.872,44.725 301.872 L 38.284 301.872 37.467 302.910 C 36.534 304.097,36.145 358.911,37.058 360.617 C 37.647 361.718,110.665 361.826,111.577 360.728 C 112.022 360.192,112.137 355.114,112.225 332.088 L 112.331 304.099 111.264 302.985 L 110.197 301.872 103.847 301.872 C 99.434 301.872,97.353 301.728,97.025 301.399 C 96.321 300.695,96.340 208.909,97.044 207.959 C 97.502 207.340,102.027 207.287,161.627 207.194 L 225.717 207.094 248.130 184.644 L 270.542 162.194 270.656 121.590 C 270.718 99.257,270.666 80.411,270.540 79.710 C 270.361 78.713,268.461 76.558,261.853 69.858 C 257.202 65.140,253.224 61.103,253.015 60.887 C 252.805 60.670,251.786 59.632,250.750 58.581 C 249.714 57.530,245.977 53.717,242.445 50.108 C 238.912 46.499,233.617 41.108,230.676 38.128 L 225.330 32.709 130.784 32.709 L 36.237 32.709 35.852 33.720 M225.222 33.886 C 225.872 34.313,228.591 36.928,231.264 39.696 C 233.937 42.464,240.063 48.719,244.879 53.596 C 249.694 58.473,257.305 66.220,261.792 70.811 L 269.951 79.160 269.945 120.269 C 269.941 145.166,269.793 161.610,269.569 161.964 C 269.366 162.285,259.393 172.394,247.408 184.427 L 225.616 206.305 160.788 206.508 C 125.133 206.619,95.916 206.752,95.862 206.803 C 95.328 207.309,95.843 301.895,96.383 302.435 C 96.896 302.949,98.127 303.054,103.595 303.054 C 108.197 303.054,110.330 303.197,110.660 303.527 C 111.285 304.152,111.348 359.058,110.725 360.223 C 110.084 361.420,38.487 361.420,37.846 360.223 C 37.405 359.399,37.242 304.812,37.678 303.678 C 37.883 303.143,38.878 303.054,44.696 303.054 C 49.929 303.054,51.649 302.927,52.240 302.495 C 53.163 301.820,53.681 78.096,52.762 76.989 C 52.416 76.572,50.671 76.453,44.910 76.453 C 40.836 76.453,37.222 76.346,36.880 76.214 C 36.211 75.957,35.899 35.053,36.558 34.036 C 37.095 33.206,38.280 33.195,131.232 33.152 C 222.971 33.109,224.053 33.118,225.222 33.886 M95.448 76.532 C 94.821 77.160,94.757 162.009,95.383 163.179 C 95.784 163.927,96.839 163.941,152.647 163.941 L 209.502 163.941 210.676 163.054 C 211.322 162.567,215.170 158.842,219.226 154.778 L 226.601 147.389 226.601 121.392 L 226.601 95.395 216.963 85.727 L 207.324 76.059 151.623 76.059 C 108.825 76.059,95.812 76.169,95.448 76.532 M216.660 86.421 L 226.207 95.996 226.207 121.374 L 226.207 146.752 218.621 154.405 C 214.448 158.614,210.464 162.304,209.766 162.605 C 208.450 163.173,97.848 163.474,96.387 162.914 C 95.824 162.697,95.764 158.529,95.764 119.761 L 95.764 76.847 151.438 76.847 L 207.113 76.847 216.660 86.421 M112.554 85.352 C 112.059 86.643,112.287 154.297,112.788 154.798 C 113.048 155.058,113.988 155.271,114.877 155.271 C 115.766 155.271,116.705 155.058,116.966 154.798 C 117.651 154.113,117.651 85.887,116.966 85.202 C 116.239 84.476,112.846 84.591,112.554 85.352 M116.604 86.053 C 116.928 86.443,117.021 95.756,116.948 120.437 L 116.847 154.286 114.877 154.286 L 112.906 154.286 112.806 120.523 C 112.715 90.218,112.769 86.697,113.326 86.139 C 114.089 85.376,116.001 85.326,116.604 86.053 M124.433 93.825 C 123.400 94.427,123.361 148.945,124.394 149.804 C 124.844 150.179,126.686 150.405,130.403 150.542 L 135.764 150.739 135.961 155.064 C 136.149 159.190,136.203 159.411,137.143 159.890 C 138.283 160.470,194.359 160.451,194.943 159.870 C 195.123 159.691,195.360 157.563,195.468 155.141 L 195.665 150.739 201.813 150.542 C 206.203 150.401,208.147 150.190,208.611 149.804 C 209.706 148.893,209.597 94.395,208.499 93.807 C 207.450 93.245,125.398 93.263,124.433 93.825 M281.675 93.825 C 280.641 94.427,280.603 148.945,281.635 149.804 C 282.089 150.182,283.956 150.404,287.842 150.542 L 293.399 150.739 293.399 180.690 L 293.399 210.640 215.482 210.837 C 141.359 211.025,137.531 211.069,136.861 211.738 C 136.196 212.403,136.147 214.903,135.961 257.058 L 135.764 301.675 129.852 301.909 C 126.601 302.038,123.918 302.171,123.890 302.205 C 123.031 303.239,122.943 306.396,123.044 332.422 C 123.104 347.807,123.296 360.616,123.472 360.887 C 124.051 361.782,207.624 361.588,207.993 360.690 C 208.549 359.335,208.329 305.905,207.765 305.340 C 207.483 305.058,205.799 304.609,204.021 304.341 C 202.243 304.073,199.635 303.621,198.227 303.336 L 195.665 302.817 195.563 281.582 C 195.483 264.855,195.566 260.279,195.957 260.031 C 196.820 259.483,292.573 259.627,293.123 260.177 C 293.666 260.720,293.816 300.522,293.278 301.368 C 293.066 301.702,291.229 301.883,287.285 301.959 C 281.663 302.068,281.593 302.080,281.101 303.054 C 280.475 304.291,280.357 358.741,280.975 360.368 L 281.360 361.379 323.064 361.379 C 354.975 361.379,364.880 361.268,365.241 360.906 C 365.943 360.205,365.924 305.683,365.222 305.122 C 364.951 304.906,363.222 304.543,361.379 304.315 C 357.071 303.783,353.826 303.093,353.201 302.576 C 352.808 302.251,352.728 286.724,352.807 226.453 L 352.906 150.739 359.073 150.631 C 364.200 150.541,365.330 150.414,365.773 149.881 C 366.467 149.044,366.789 95.460,366.107 94.185 C 365.625 93.284,283.208 92.932,281.675 93.825 M207.711 94.201 C 208.575 94.663,208.934 146.519,208.089 148.743 L 207.704 149.754 201.954 149.754 C 194.410 149.754,194.680 149.573,194.680 154.615 C 194.680 157.236,194.513 158.827,194.207 159.133 C 193.706 159.634,139.053 159.860,137.766 159.367 C 137.253 159.170,137.143 158.405,137.143 155.054 C 137.143 149.714,137.194 149.754,130.346 149.754 L 125.301 149.754 124.916 148.743 C 124.192 146.838,124.416 95.148,125.151 94.412 C 125.910 93.654,206.303 93.448,207.711 94.201 M365.241 94.266 C 365.743 94.767,365.969 147.844,365.475 149.130 C 365.272 149.659,364.375 149.754,359.589 149.754 C 356.484 149.754,353.488 149.927,352.932 150.138 L 351.921 150.522 351.921 226.765 C 351.921 276.551,352.056 303.091,352.311 303.248 C 353.193 303.794,357.187 304.621,360.581 304.962 C 362.572 305.161,364.409 305.532,364.662 305.786 C 365.370 306.493,365.320 359.567,364.611 360.276 C 363.827 361.060,282.472 361.236,281.823 360.454 C 281.494 360.058,281.401 352.348,281.475 331.582 L 281.576 303.251 287.349 303.142 C 291.579 303.063,293.240 302.893,293.560 302.507 C 293.871 302.132,293.968 295.857,293.895 280.744 L 293.793 259.507 244.771 259.407 C 208.871 259.334,195.606 259.426,195.215 259.751 C 194.287 260.521,194.437 302.906,195.369 303.370 C 196.402 303.885,199.981 304.578,203.697 304.983 C 205.692 305.200,207.133 305.553,207.336 305.873 C 207.807 306.616,207.771 359.451,207.299 360.197 C 206.877 360.865,127.720 361.323,125.206 360.672 L 123.941 360.344 123.840 332.235 C 123.766 311.798,123.860 303.980,124.184 303.590 C 124.519 303.186,125.962 303.054,130.069 303.054 C 138.113 303.054,137.143 309.374,137.143 256.971 C 137.143 223.270,137.254 212.855,137.616 212.493 C 137.980 212.128,155.831 212.020,215.567 212.020 C 275.302 212.020,293.153 211.911,293.517 211.547 C 294.202 210.862,294.202 150.911,293.517 150.227 C 293.197 149.906,291.357 149.754,287.817 149.754 C 283.052 149.754,282.553 149.686,282.181 148.991 C 281.912 148.487,281.773 139.138,281.773 121.393 L 281.773 94.556 282.660 94.199 C 284.098 93.622,364.662 93.686,365.241 94.266 M132.808 100.766 C 131.248 101.324,131.232 101.546,131.232 121.998 C 131.232 145.357,130.446 142.806,137.695 142.984 C 143.921 143.138,143.600 142.861,143.842 148.279 C 144.089 153.780,141.532 153.213,166.325 153.261 C 189.761 153.307,187.586 153.771,187.586 148.715 C 187.586 146.714,187.759 144.621,187.971 144.065 L 188.355 143.054 194.656 143.054 C 200.483 143.054,200.988 142.997,201.365 142.292 C 201.904 141.285,201.927 102.917,201.389 101.503 L 201.005 100.493 167.202 100.524 C 148.610 100.541,133.133 100.650,132.808 100.766 M289.278 101.249 C 288.744 102.247,288.719 141.422,289.253 142.266 C 289.546 142.731,290.745 142.887,294.862 142.995 C 297.742 143.070,300.320 143.314,300.591 143.535 C 301.018 143.885,301.408 218.009,300.985 218.421 C 300.931 218.474,265.596 218.607,222.463 218.717 L 144.039 218.916 143.842 263.908 C 143.734 288.654,143.498 309.048,143.318 309.228 C 143.138 309.409,140.308 309.645,137.029 309.754 C 131.077 309.950,131.067 309.952,130.795 310.936 C 130.645 311.478,130.504 321.088,130.483 332.293 L 130.443 352.665 131.319 353.278 C 132.095 353.822,136.015 353.892,165.714 353.892 C 195.414 353.892,199.333 353.822,200.109 353.278 L 200.985 352.665 200.946 333.081 C 200.900 310.275,201.069 311.627,198.210 311.223 C 194.166 310.651,188.966 309.638,188.276 309.288 C 187.477 308.882,187.185 255.294,187.971 253.228 L 188.355 252.217 244.246 252.217 C 287.192 252.217,300.247 252.326,300.611 252.690 C 301.313 253.392,301.294 308.783,300.591 309.238 C 300.320 309.413,297.449 309.645,294.211 309.754 L 288.324 309.951 288.001 311.202 C 287.823 311.890,287.723 321.550,287.780 332.668 L 287.882 352.883 288.867 353.382 C 290.686 354.302,356.734 354.099,357.574 353.171 C 358.329 352.338,358.588 314.302,357.853 312.368 C 357.546 311.562,357.136 311.343,355.587 311.157 C 351.613 310.679,346.186 309.637,345.714 309.261 C 345.200 308.852,344.953 145.871,345.463 143.967 C 345.686 143.137,345.904 143.103,351.901 142.982 C 356.432 142.891,358.284 142.711,358.759 142.316 C 359.675 141.554,359.761 102.701,358.850 101.455 C 357.967 100.248,289.922 100.046,289.278 101.249 M200.985 121.970 L 200.985 142.266 194.562 142.266 C 186.831 142.266,187.194 142.034,187.187 146.975 C 187.184 149.045,187.074 151.138,186.944 151.626 L 186.706 152.512 166.234 152.512 C 142.087 152.512,144.236 152.978,144.236 147.743 C 144.236 142.099,144.409 142.267,138.607 142.261 C 135.959 142.258,133.394 142.148,132.906 142.018 L 132.020 141.780 132.020 121.957 C 132.020 106.468,132.127 102.091,132.512 101.936 C 132.783 101.827,148.300 101.723,166.995 101.706 L 200.985 101.675 200.985 121.970 M357.997 101.914 C 358.554 102.128,358.621 104.263,358.621 121.967 L 358.621 141.780 357.734 142.018 C 357.246 142.148,354.356 142.258,351.310 142.261 C 347.536 142.264,345.623 142.417,345.300 142.739 C 344.936 143.104,344.828 162.241,344.828 226.477 L 344.828 309.743 346.305 310.381 C 347.118 310.732,349.872 311.213,352.426 311.449 C 358.122 311.977,357.484 309.160,357.351 333.202 L 357.241 352.906 323.153 352.906 L 289.064 352.906 288.951 332.808 C 288.889 321.754,288.941 312.133,289.068 311.429 L 289.297 310.148 295.111 310.148 C 299.109 310.148,301.074 310.000,301.399 309.675 C 302.211 308.863,302.068 252.864,301.253 252.048 C 300.378 251.173,188.357 251.091,187.632 251.965 C 187.308 252.355,187.214 260.276,187.288 281.007 L 187.389 309.513 188.581 310.209 C 189.354 310.660,191.500 311.085,194.689 311.419 L 199.606 311.934 199.606 332.420 L 199.606 352.906 165.616 353.007 L 131.626 353.108 131.626 331.628 L 131.626 310.148 137.458 310.148 C 141.469 310.148,143.438 310.000,143.764 309.675 C 144.126 309.313,144.236 298.710,144.236 264.355 L 144.236 219.507 221.970 219.502 C 283.850 219.497,299.905 219.394,300.690 218.997 L 301.675 218.499 301.775 181.399 C 301.839 157.862,301.735 143.927,301.490 143.282 L 301.103 142.266 296.193 142.266 C 293.492 142.266,290.828 142.093,290.272 141.882 L 289.261 141.497 289.261 122.209 C 289.261 111.601,289.369 102.641,289.500 102.298 C 289.745 101.661,356.365 101.288,357.997 101.914 M279.606 158.298 C 278.412 158.627,278.239 159.147,278.233 162.433 C 278.225 166.182,280.256 163.796,258.941 185.099 C 245.715 198.317,241.710 202.538,242.062 202.889 C 242.551 203.379,283.838 203.591,285.091 203.111 C 285.805 202.837,286.051 159.961,285.345 158.845 C 284.973 158.256,281.097 157.887,279.606 158.298 M284.453 159.685 C 285.135 160.367,285.135 201.801,284.453 202.483 C 283.978 202.958,243.157 203.223,242.688 202.754 C 242.578 202.643,250.503 194.521,260.301 184.705 C 280.075 164.893,279.015 166.145,279.015 162.607 C 279.015 160.577,279.159 159.955,279.704 159.637 C 280.662 159.080,283.880 159.112,284.453 159.685 M104.906 215.645 C 104.220 216.331,104.220 293.225,104.906 293.911 C 105.708 294.713,127.047 294.572,127.859 293.759 C 128.784 292.835,128.613 216.145,127.685 215.558 C 126.767 214.978,105.492 215.059,104.906 215.645 M127.588 254.883 L 127.689 293.608 116.357 293.504 L 105.025 293.399 104.916 255.567 C 104.857 234.759,104.905 217.332,105.024 216.841 L 105.240 215.948 116.364 216.053 L 127.488 216.158 127.588 254.883 " stroke="none" fill="#c1a493" fill-rule="evenodd"></path></g></svg>